<?xml version="1.0" standalone="no"?>
<!DOCTYPE svg PUBLIC "-//W3C//DTD SVG 20010904//EN"
 "http://www.w3.org/TR/2001/REC-SVG-20010904/DTD/svg10.dtd">
<svg version="1.0" xmlns="http://www.w3.org/2000/svg"
 width="1920.000000pt" height="1080.000000pt" viewBox="0 0 1920.000000 1080.000000"
 preserveAspectRatio="xMidYMid meet">

<g transform="translate(0.000000,1080.000000) scale(0.100000,-0.100000)"
fill="#000000" stroke="none">
<path d="M1466 10109 c-192 -144 -361 -265 -374 -268 -23 -6 -35 -35 -127
-296 -57 -160 -105 -297 -109 -305 -4 -9 42 -89 122 -210 l128 -195 -157 -255
-157 -255 -29 -320 -30 -320 106 -269 106 -269 437 -349 c241 -192 438 -352
438 -356 0 -4 -56 -126 -124 -272 l-124 -265 30 -240 31 -240 109 -124 108
-124 253 -122 252 -122 315 -22 315 -23 460 156 c253 86 465 156 470 156 6 0
53 118 104 261 l95 261 -55 51 c-29 28 -131 126 -225 217 l-171 167 29 314
c16 172 30 314 31 315 24 10 1087 394 1093 394 5 0 32 60 59 133 27 72 66 174
86 226 l38 94 -147 293 -147 294 -460 0 -460 0 -215 -290 c-200 -270 -217
-290 -245 -289 -16 0 -183 12 -370 27 l-340 27 -3 266 -2 266 266 374 c146
206 272 381 280 390 8 9 178 89 378 179 l363 163 168 359 c97 208 164 362 159
367 -5 5 -198 32 -429 61 -408 50 -626 90 -1148 209 -23 6 -193 15 -377 21
-184 6 -362 13 -395 16 l-60 5 -349 -262z"/>
<path d="M10380 9816 c-533 -112 -552 -116 -855 -216 -170 -56 -315 -107 -322
-113 -7 -7 -82 -189 -168 -406 l-156 -394 -54 -411 -54 -411 -130 -550 c-72
-302 -135 -560 -140 -572 -28 -62 -467 -669 -496 -685 -7 -4 -131 -48 -276
-98 l-264 -90 -153 0 -153 0 -110 80 c-60 44 -113 80 -117 80 -24 0 -305 -106
-309 -117 -5 -14 247 -592 258 -593 3 0 106 -56 227 -125 l221 -126 207 -9
c226 -10 776 -56 812 -68 12 -4 127 -132 256 -285 l234 -278 240 -459 c240
-456 243 -461 503 -848 l262 -389 481 -252 c403 -211 484 -250 501 -242 11 6
183 67 382 135 200 69 375 132 390 140 16 9 169 116 342 238 l314 223 139 370
c76 204 215 606 308 895 l171 525 15 575 15 575 83 590 84 590 -15 260 c-11
199 -12 408 -8 895 l6 635 -180 374 c-99 206 -184 377 -188 381 -4 4 -161 65
-348 135 -186 69 -346 130 -355 135 -8 4 -249 10 -535 13 l-520 6 -545 -113z"/>
<path d="M14840 9519 c-535 -64 -559 -67 -571 -89 -4 -8 -66 -1696 -137 -3750
-97 -2783 -127 -3738 -118 -3746 9 -10 1498 -79 2288 -107 l67 -2 757 1065
c416 586 760 1067 765 1068 5 2 9 8 9 12 0 5 -230 365 -510 799 l-510 790 691
938 c380 516 696 941 701 944 6 4 8 13 5 20 -3 8 -285 333 -627 723 l-620 709
-834 338 c-459 185 -842 339 -852 342 -11 2 -237 -22 -504 -54z"/>
<path d="M7210 8298 l-275 -29 -292 -137 c-165 -77 -295 -144 -298 -153 -3 -9
-38 -160 -79 -337 l-73 -322 77 -223 77 -223 130 -175 130 -175 125 -16 124
-15 53 -56 c30 -31 56 -55 60 -53 3 2 131 1 284 -4 l278 -8 261 123 260 124
130 228 129 228 8 304 9 305 -186 245 c-102 136 -188 249 -191 253 -6 7 -456
149 -463 147 -1 -1 -127 -15 -278 -31z"/>
<path d="M4671 5976 c-5 -6 -21 -108 -36 -226 l-28 -215 -164 -406 -165 -407
-651 -251 -652 -251 -330 0 -330 1 -325 519 c-179 286 -329 521 -335 523 -20
8 -1140 -115 -1152 -127 -11 -11 -134 -1011 -126 -1031 2 -6 177 -97 388 -203
l385 -192 0 -92 c0 -51 7 -284 15 -518 8 -234 15 -459 15 -500 l0 -75 -227
-155 c-124 -85 -232 -161 -240 -168 -19 -19 -20 -1670 0 -1677 6 -2 323 -31
702 -64 l690 -61 823 0 822 0 722 541 721 542 946 -87 c520 -48 960 -88 977
-89 28 -2 86 47 550 456 285 252 525 468 532 480 7 12 53 241 101 509 l89 487
-285 793 c-156 435 -288 797 -293 804 -8 8 -128 -24 -457 -123 l-447 -134
-310 310 c-171 171 -318 311 -327 311 -9 0 -249 -110 -534 -245 -286 -135
-522 -242 -525 -238 -4 5 -19 262 -35 573 -15 311 -30 567 -32 570 -2 2 -107
32 -234 66 -160 42 -232 57 -238 50z"/>
<path d="M10915 1719 c-599 -54 -1099 -101 -1110 -104 -24 -6 -469 -411 -473
-431 -2 -8 87 -128 198 -266 152 -191 209 -255 233 -263 18 -7 164 -84 326
-173 l294 -162 1361 -1 1361 0 797 263 c530 175 797 267 795 276 -1 7 -351
203 -778 436 l-777 423 -533 47 c-294 25 -550 48 -569 50 -19 2 -525 -40
-1125 -95z"/>
</g>
</svg>
